<?xml version="1.0" encoding="UTF-8" standalone="no"?>
<!-- Generator: Adobe Illustrator 16.0.3, SVG Export Plug-In . SVG Version: 6.00 Build 0)  -->

<svg
   width="478.92346"
   height="185.12457"
   version="1.1"
   id="svg22"
   sodipodi:docname="bjjblackbelt.svg"
   inkscape:version="1.1 (ce6663b3b7, 2021-05-25)"
   xmlns:inkscape="http://www.inkscape.org/namespaces/inkscape"
   xmlns:sodipodi="http://sodipodi.sourceforge.net/DTD/sodipodi-0.dtd"
   xmlns="http://www.w3.org/2000/svg"
   xmlns:svg="http://www.w3.org/2000/svg">
  <defs
     id="defs26" />
  <sodipodi:namedview
     id="namedview24"
     pagecolor="#ffffff"
     bordercolor="#666666"
     borderopacity="1.0"
     inkscape:pageshadow="2"
     inkscape:pageopacity="0.0"
     inkscape:pagecheckerboard="0"
     showgrid="false"
     fit-margin-top="0"
     fit-margin-left="0"
     fit-margin-right="0"
     fit-margin-bottom="0"
     inkscape:zoom="2.1825"
     inkscape:cx="244.90263"
     inkscape:cy="90.950745"
     inkscape:window-width="3768"
     inkscape:window-height="1930"
     inkscape:window-x="0"
     inkscape:window-y="0"
     inkscape:window-maximized="1"
     inkscape:current-layer="svg22" />
  <g
     id="g853"
     transform="translate(-42.822203,-109.27304)">
    <path
       stroke="#bfbfbf"
       stroke-width="4"
       d="m 234.919,155.558 c 0,0 -1.475,4.952 0.21,7.375 1.686,2.423 24.86,1.791 24.86,1.791 l -11.27,-10.219 z"
       id="path2" />
    <path
       stroke="#bfbfbf"
       stroke-width="4"
       d="m 52.706,132.702 c 0,0 119.181,32.087 233.779,32.087 114.598,0 214.679,-51.187 218.5,-53.479 3.819,-2.292 12.987,38.963 0.765,48.131 -12.225,9.168 -80.983,48.896 -216.208,48.896 -135.226,0 -233.015,-21.392 -239.892,-29.032 -6.876,-7.64 -6.876,-38.199 3.056,-46.603 z"
       id="path4" />
    <path
       stroke="#bfbfbf"
       stroke-width="4"
       d="m 294.889,235.84 c 0,0 -22.156,-6.112 -28.268,-21.392 -6.111,-15.279 58.827,-29.795 58.827,-29.795 l -6.112,31.324 z"
       id="path6" />
    <path
       stroke="#bfbfbf"
       stroke-width="4"
       d="m 238.354,212.156 c 0,0 30.56,21.392 35.143,19.1 4.584,-2.292 58.827,-36.671 58.827,-36.671 l -45.839,-33.615 -50.423,38.2 z"
       id="path8" />
    <path
       stroke="#bfbfbf"
       stroke-width="4"
       d="m 65.693,261.815 c 0,0 125.293,-76.398 200.928,-106.958 75.635,-30.56 30.56,29.031 30.56,29.031 0,0 -78.69,38.199 -110.778,57.299 -32.088,19.1 -81.746,50.424 -87.858,51.188 -6.112,0.764 -32.852,-30.56 -32.852,-30.56 z"
       id="path10" />
    <path
       stroke="#bfbfbf"
       stroke-width="4"
       d="m 298.842,136.807 c 0,0 -5.29,-1.851 -14.146,8.46 -8.857,10.312 15.07,8.197 15.07,8.197 z"
       id="path12" />
    <path
       stroke="#bfbfbf"
       stroke-width="4"
       d="m 275.025,138.05 c 0,0 94.734,49.659 127.586,60.355 32.851,10.696 113.832,46.603 116.889,55.771 3.057,9.168 -27.503,30.559 -27.503,30.559 0,0 -23.685,-21.391 -54.243,-34.379 -30.56,-12.987 -83.274,-34.379 -112.306,-48.131 -29.031,-13.751 -89.387,-47.367 -89.387,-47.367 z"
       id="path14" />
    <path
       stroke="#bfbfbf"
       stroke-width="4"
       d="m 298.709,137.286 c 0,0 -2.292,92.442 -4.584,97.026 -2.293,4.584 42.783,-12.987 43.546,-18.335 0.765,-5.349 6.877,-50.423 2.293,-55.007 -4.584,-4.584 -36.672,-25.976 -41.255,-23.684 z"
       id="path16" />
    <path
       fill="#ffffff"
       stroke="#bfbfbf"
       stroke-width="4"
       d="m 95.708,243.844 c 0,0 20.641,24.654 33.446,31.918 4.013,-1.912 87.34,-50.839 87.34,-50.839 0,0 -25.801,-22.933 -29.623,-32.107 -7.453,4.205 -91.163,51.028 -91.163,51.028 z"
       id="path18" />
    <path
       fill="#ff0000"
       stroke="#bfbfbf"
       stroke-width="4"
       d="m 104.881,238.684 c 0,0 20.641,24.655 33.446,31.917 4.013,-1.911 68.995,-40.707 68.995,-40.707 0,0 -25.801,-22.933 -29.624,-32.108 -7.452,4.205 -72.817,40.898 -72.817,40.898 z"
       id="path20" />
  </g>
</svg>
