<?xml version="1.0" encoding="UTF-8" standalone="no"?>
<svg
   width="478.92346"
   height="185.12552"
   overflow="visible"
   version="1.1"
   id="svg26"
   sodipodi:docname="bjjwhitebelt.svg"
   inkscape:version="1.1 (ce6663b3b7, 2021-05-25)"
   xmlns:inkscape="http://www.inkscape.org/namespaces/inkscape"
   xmlns:sodipodi="http://sodipodi.sourceforge.net/DTD/sodipodi-0.dtd"
   xmlns="http://www.w3.org/2000/svg"
   xmlns:svg="http://www.w3.org/2000/svg">
  <defs
     id="defs30" />
  <sodipodi:namedview
     id="namedview28"
     pagecolor="#ffffff"
     bordercolor="#666666"
     borderopacity="1.0"
     inkscape:pageshadow="2"
     inkscape:pageopacity="0.0"
     inkscape:pagecheckerboard="0"
     showgrid="false"
     fit-margin-top="0"
     fit-margin-left="0"
     fit-margin-right="0"
     fit-margin-bottom="0"
     inkscape:zoom="2.7955431"
     inkscape:cx="239.13064"
     inkscape:cy="92.826328"
     inkscape:window-width="3768"
     inkscape:window-height="1930"
     inkscape:window-x="0"
     inkscape:window-y="0"
     inkscape:window-maximized="1"
     inkscape:current-layer="g20" />
  <switch
     id="switch24"
     transform="translate(0.05279742,0.23095594)">
    <g
       id="g22">
      <g
         stroke="#1a1a1a"
         stroke-width="4"
         id="g20">
        <g
           id="g2263">
          <path
             fill="#ffffff"
             d="m 192.044,46.054 c 0,0 -1.475,4.952 0.21,7.375 1.686,2.423 24.86,1.791 24.86,1.791 L 205.845,45 Z"
             id="path2" />
          <path
             fill="#ffffff"
             d="m 9.831,23.198 c 0,0 119.181,32.087 233.779,32.087 114.598,0 214.679,-51.187 218.5,-53.479 3.819,-2.292 12.987,38.963 0.765,48.131 C 450.65,59.105 381.892,98.833 246.667,98.833 111.441,98.833 13.652,77.441 6.775,69.801 -0.101,62.161 -0.101,31.602 9.831,23.198 Z"
             id="path4" />
          <path
             fill="#ffffff"
             d="m 252.014,126.336 c 0,0 -22.156,-6.112 -28.268,-21.392 -6.111,-15.279 58.827,-29.795 58.827,-29.795 l -6.112,31.324 z"
             id="path6" />
          <path
             fill="#ffffff"
             d="m 195.479,102.652 c 0,0 30.56,21.392 35.143,19.1 4.584,-2.292 58.827,-36.671 58.827,-36.671 l -45.839,-33.616 -50.423,38.2 z"
             id="path8" />
          <path
             fill="#ffffff"
             d="m 22.818,152.312 c 0,0 125.293,-76.398 200.928,-106.958 75.635,-30.56 30.56,29.031 30.56,29.031 0,0 -78.69,38.199 -110.778,57.299 -32.088,19.1 -81.746,50.424 -87.858,51.188 -6.112,0.763 -32.852,-30.56 -32.852,-30.56 z"
             id="path10" />
          <path
             fill="#ffffff"
             d="m 255.967,27.303 c 0,0 -5.29,-1.851 -14.146,8.46 -8.857,10.312 15.07,8.197 15.07,8.197 z"
             id="path12" />
          <path
             fill="#ffffff"
             d="m 232.15,28.546 c 0,0 94.734,49.659 127.586,60.355 32.851,10.696 113.832,46.603 116.889,55.771 3.057,9.168 -27.503,30.559 -27.503,30.559 0,0 -23.685,-21.391 -54.243,-34.379 C 364.319,127.865 311.605,106.473 282.573,92.721 253.542,78.97 193.186,45.354 193.186,45.354 Z"
             id="path14" />
          <path
             fill="#ffffff"
             d="m 255.967,27.303 c 0,0 -2.292,92.442 -4.584,97.026 -2.293,4.584 42.783,-12.987 43.546,-18.335 0.765,-5.349 6.877,-50.423 2.293,-55.007 -4.584,-4.584 -36.672,-25.976 -41.255,-23.684 z"
             id="path16"
             sodipodi:nodetypes="cccsc" />
          <path
             d="m 62.006,129.18 c 0,0 20.641,24.655 33.446,31.917 4.013,-1.911 68.995,-40.707 68.995,-40.707 0,0 -25.801,-22.933 -29.624,-32.108 -7.452,4.205 -72.817,40.898 -72.817,40.898 z"
             id="path18" />
        </g>
      </g>
    </g>
  </switch>
</svg>
